P3
3 3
10
0
0
0
0
2
0
0
0
0
2
1
1
1
1
0
0
0
0
0
0
0
0
2
0
0
0
0
